<svg width="16" height="15" viewBox="0 0 16 15" fill="none" xmlns="http://www.w3.org/2000/svg">
<path d="M1.55701 12.3088C1.55701 11.4469 1.89942 10.6202 2.50891 10.0107C3.1184 9.40125 3.94505 9.05884 4.80701 9.05884H11.307C12.169 9.05884 12.9956 9.40125 13.6051 10.0107C14.2146 10.6202 14.557 11.4469 14.557 12.3088C14.557 12.7398 14.3858 13.1531 14.0811 13.4579C13.7763 13.7626 13.363 13.9338 12.932 13.9338H3.18201C2.75103 13.9338 2.3377 13.7626 2.03296 13.4579C1.72821 13.1531 1.55701 12.7398 1.55701 12.3088Z" stroke="white" stroke-width="1.5" stroke-linejoin="round"/>
<path d="M8.05701 5.80884C9.4032 5.80884 10.4945 4.71753 10.4945 3.37134C10.4945 2.02514 9.4032 0.933838 8.05701 0.933838C6.71081 0.933838 5.61951 2.02514 5.61951 3.37134C5.61951 4.71753 6.71081 5.80884 8.05701 5.80884Z" stroke="white" stroke-width="1.5"/>
</svg>
